<svg viewBox="0 0 512 512.00019" fill="#46484D" xmlns="http://www.w3.org/2000/svg">
    <path d="m404 255.914062c50.046875-59.441406 146.167969-184.726562 91.394531-239.5-54.777343-54.777343-179.574219 40.921876-239.507812 91.386719-43.3125-36.457031-112.28125-88.390625-166.515625-103.488281-63.683594-17.75-102.839844 21.375-85.082032 85.082031 15.09375 54.234375 67.183594 123.453125 103.484376 166.519531-50.183594 59.601563-146.046876 184.78125-91.394532 239.507813 30.386719 30.34375 79.679688 13.40625 117.410156-6.160156 3.785157-1.964844 5.265626-6.613281 3.300782-10.394531-1.964844-3.785157-6.613282-5.253907-10.394532-3.300782-30.289062 15.710938-75.085937 33.265625-99.40625 8.945313-45.253906-45.195313 49.488282-167.625 90.632813-216.714844 9.757813 11.28125 19.96875 22.609375 30.558594 33.941406-26.222657 31.78125-75.414063 96.542969-84.289063 136.679688-1.222656 5.539062 3.765625 10.417969 9.191406 9.191406 48.839844-10.792969 131.925782-78.777344 169.980469-113 37.289063 6.058594 72.601563-15.355469 85.566407-49.351563 4.6875 5.304688 9.265624 10.589844 13.726562 15.855469-52.9375 55.535157-123.738281 119-189.382812 159.335938-4.207032 2.617187-4.890626 7.40625-2.765626 10.808593 2.300782 3.6875 7.207032 4.75 10.816407 2.34375 29.375-18.054687 61.566406-41.796874 94.5625-69.578124 59.535156 50.128906 184.75 146.089843 239.507812 91.398437 54.738281-54.789063-40.898437-179.539063-91.394531-239.507813zm-45.480469-204.550781c35.855469-22.042969 96.375-53.605469 125.964844-24.050781 45.292969 45.351562-49.558594 167.707031-90.632813 216.714844-9.757812-11.28125-19.96875-22.609375-30.558593-33.941406 11.433593-13.851563 22.0625-27.523438 31.75-40.828126 2.507812-3.445312 1.746093-8.269531-1.695313-10.777343-3.445312-2.507813-8.269531-1.746094-10.765625 1.695312-9.164062 12.597657-19.199219 25.519531-29.972656 38.628907-12.726563-13.300782-25.957031-26.53125-39.605469-39.613282 30.785156-25.3125 78.140625-60.632812 115.0625-75.472656-4.378906 10.929688-12.632812 27.703125-28.148437 51.410156-2.335938 3.570313-1.339844 8.351563 2.230469 10.675782 3.558593 2.332031 8.335937 1.335937 10.671874-2.234376 25.304688-38.667968 32.644532-60.558593 34.761719-70.164062 1.210938-5.496094-3.691406-10.402344-9.191406-9.191406-49.667969 10.984375-134.773437 81.109375-172.984375 115.703125-35.867188-4.367188-68.617188 16.179687-81.699219 47.625-4.984375-5.621094-9.859375-11.246094-14.601562-16.832031 53.089843-55.605469 123.375-118.761719 189.414062-159.347657zm-199.355469 147.441407c-25.316406-30.789063-60.722656-78.269532-75.46875-115.085938 36.933594 14.828125 84.210938 50.105469 115.074219 75.480469-13.023437 12.464843-26.4375 25.847656-39.605469 39.605469zm-75.46875 229.300781c14.777344-36.863281 50.085938-84.183594 75.46875-115.085938 12.683594 13.253907 25.773438 26.378907 39.605469 39.613281-30.867187 25.382813-78.335937 60.753907-115.074219 75.472657zm172.191407-107.898438c-23.976563 0-46.222657-13.992187-56.601563-35.667969-1.839844-3.835937-6.445312-5.460937-10.28125-3.621093-3.847656 1.839843-5.472656 6.445312-3.628906 10.28125 8.398438 17.550781 23.039062 31.0625 40.476562 38.363281-5.066406 4.472656-10.125 8.839844-15.164062 13.117188-34.0625-32.46875-66.671875-67.441407-92.765625-98.652344-159.859375-190.722656-101.386719-243.9843752-32.695313-224.855469 51.210938 14.269531 118.175782 64.769531 158.773438 98.777344-11.277344 9.757812-22.609375 19.96875-33.941406 30.558593-31.925782-26.328124-96.546875-75.425781-136.675782-84.292968-5.5-1.210938-10.402343 3.691406-9.191406 9.191406 10.929688 49.425781 80.039063 133.484375 114.539063 171.699219-.757813 4.703125-.988281 8.683593-.988281 13.015625.097656 9.953125 15.425781 10.5625 15.425781-.636719 0-34.582031 28.144531-62.71875 62.71875-62.71875 32.273437 0 58.886719 24.5 62.328125 55.789063 4.179687 36.929687-24.914063 69.652343-62.328125 69.652343zm96.722656-7.1875c25.273437 30.769531 60.625 78.113281 75.46875 115.085938-36.777344-14.734375-84.222656-50.105469-115.074219-75.472657 13.832032-13.234374 26.921875-26.363281 39.605469-39.613281zm131.875 171.492188c-45.335937 45.335937-167.9375-49.773438-216.722656-90.636719 11.28125-9.757812 22.621093-19.957031 33.953125-30.558594 31.878906 26.308594 96.539062 75.414063 136.675781 84.292969 5.476563 1.21875 10.40625-3.679687 9.191406-9.191406-10.90625-49.367188-79.859375-133.207031-114.148437-171.269531 4.546875-36.855469-17.171875-70.347657-49.917969-82.757813 5.878906-5.210937 11.742187-10.300781 17.570313-15.246094 62.710937 59.863281 243.882812 254.882813 183.398437 315.367188zm0 0"/>
</svg>