<svg viewBox="0 -4 512.00169 512" fill="#365B9A" xmlns="http://www.w3.org/2000/svg">
    <path d="m510.0625 311.84375c.949219-4.132812-1.632812-8.25-5.765625-9.199219-4.132813-.945312-8.25 1.632813-9.195313 5.765625-6.652343 28.984375-33.085937 47.910156-62 45.871094-9.539062-.652344-17.429687 6.898438-17.429687 16.277344 0 47.539062-44.761719 72.648437-81.878906 57.339844-7.765625-3.203126-16.851563-.0625-20.699219 7.757812-24.34375 49.445312-94.199219 49.960938-119.65625 1.613281-2.796875-5.320312-8.289062-8.628906-14.332031-8.628906-5.453125 0-18.894531 7.289063-39.480469 1.515625-4.078125-1.140625-8.316406 1.234375-9.460938 5.316406-1.144531 4.082032 1.234376 8.320313 5.316407 9.464844 24.089843 6.753906 42.601562-.945312 43.625-.945312.125 0 .542969.03125.75.425781 31.285156 59.429687 117.121093 58.730469 147.011719-1.980469.195312-.402344.644531-.523438 1.074218-.347656 49.851563 20.558594 104.753906-17.214844 103.082032-71.53125 0-.539063.367187-.988282 1.015624-.960938 36.644532 2.582032 69.828126-22.027344 78.023438-57.753906zm0 0"/>
    <path d="m152.863281 72.414062c8.757813-.40625 17.359375 1.078126 25.390625 4.390626 7.765625 3.199218 16.851563.058593 20.699219-7.761719 24.34375-49.445313 94.199219-49.960938 119.652344-1.613281 3.695312 7.019531 11.890625 10.269531 19.414062 7.820312 39.058594-12.726562 78.980469 17.40625 77.660157 58.324219-.351563 9.542969 7.667968 17.53125 17.4375 16.84375 49.484374-3.496094 81.023437 52.035156 53.117187 92.726562-1.871094 2.726563-2.859375 5.910157-2.859375 9.207031 0 9.726563 7.425781 11.085938 11.65625 29.101563.96875 4.125 5.097656 6.683594 9.230469 5.714844 4.125-.96875 6.683593-5.101563 5.714843-9.226563-2.113281-8.992187-5.839843-17.425781-11.082031-25.066406-.21875-.316406-.226562-.71875 0-1.050781 33.710938-49.152344-1.460937-116.902344-61.644531-116.902344-5.09375 0-6.230469.675781-6.226562-.824219 1.652343-51.554687-48.554688-89.46875-97.761719-73.441406-.410157.132812-.871094.007812-1.070313-.375-31.285156-59.429688-117.117187-58.726562-147.011718 1.984375-.195313.402344-.644532.523437-1.074219.347656-10.109375-4.171875-20.945313-6.050781-31.957031-5.53125-4.234376.195313-7.507813 3.789063-7.308594 8.023438.195312 4.230469 3.792968 7.523437 8.023437 7.308593zm0 0"/>
    <path d="m129.941406 69.316406c-2.054687-3.707031-6.726562-5.046875-10.433594-2.988281-24.039062 13.324219-39.371093 39.144531-38.484374 67.8125 0 .550781-.386719.925781-1.015626.960937-62.242187-4.382812-102.015624 65.464844-66.859374 116.722657.21875.320312.226562.71875 0 1.050781-35.039063 51.089844 4.292968 121.019531 66.949218 116.714844.527344 0 .925782.417968.921875 1.011718-.703125 22.03125 8.398438 43.28125 24.746094 57.976563 1.46875 1.316406 3.300781 1.964844 5.128906 1.964844 6.984375 0 10.378907-8.671875 5.132813-13.382813-13.070313-11.75-20.222656-28.683594-19.664063-46.039062.351563-9.511719-7.640625-17.527344-17.4375-16.839844-49.484375 3.496094-81.023437-52.035156-53.117187-92.726562 3.8125-5.558594 3.816406-12.855469 0-18.414063-27.929688-40.726563 3.710937-96.226563 53.117187-92.726563 9.550781.667969 17.445313-6.890624 17.445313-16.273437 0-.203125-.039063-1.472656-.039063-2.445313 0-21.570312 11.734375-41.472656 30.617188-51.945312 3.710937-2.054688 5.050781-6.726562 2.992187-10.433594zm0 0"/>
    <path d="m456.996094 116.765625 52.492187-48.492187c3.113281-2.875 3.304688-7.730469.429688-10.847657-2.878907-3.113281-7.734375-3.304687-10.847657-.429687l-52.492187 48.492187c-3.113281 2.878907-3.304687 7.734375-.429687 10.847657 2.875 3.113281 7.730468 3.304687 10.847656.429687zm0 0"/>
    <path d="m167.363281 40.101562c1.324219 2.746094 4.066407 4.351563 6.921875 4.351563 5.613282 0 9.371094-5.898437 6.910156-11.007813l-14.003906-29.09375c-1.835937-3.820312-6.425781-5.429687-10.242187-3.589843-3.820313 1.839843-5.425781 6.425781-3.589844 10.246093zm0 0"/>
    <path d="m53.605469 114.953125c1.417969 2.46875 4.003906 3.851563 6.660156 3.851563 5.851563 0 9.597656-6.371094 6.644531-11.503907l-42.765625-74.351562c-2.113281-3.679688-6.804687-4.941407-10.480469-2.828125-3.675781 2.113281-4.941406 6.804687-2.828124 10.480468zm0 0"/>
    <path d="m54.679688 380.640625-42.769532 45.257813c-2.910156 3.082031-2.773437 7.941406.308594 10.851562s7.9375 2.773438 10.851562-.308594l42.765626-45.257812c2.910156-3.078125 2.773437-7.9375-.308594-10.847656-3.078125-2.914063-7.9375-2.777344-10.847656.304687zm0 0"/>
    <path d="m457.109375 391.695312c-3.054687-2.9375-7.914063-2.84375-10.855469.210938-2.9375 3.054688-2.84375 7.914062.210938 10.851562 56.75 54.605469 53.546875 52.652344 57.8125 52.652344 6.859375 0 10.308594-8.414062 5.324218-13.210937zm0 0"/>
    <path d="m342.808594 460.121094c-1.867188-3.808594-6.460938-5.378906-10.269532-3.515625-3.804687 1.867187-5.378906 6.464843-3.515624 10.273437l15.851562 32.328125c1.332031 2.71875 4.058594 4.296875 6.898438 4.296875 5.648437 0 9.386718-5.949218 6.886718-11.054687zm0 0"/>
    <path d="m115.140625 244.683594c5.535156-4.769532 8.710937-12.816406 8.710937-22.609375 0-23.886719-17.898437-26.652344-31.363281-26.652344h-22.75c-4.1875 0-7.230469 2.75-7.230469 6.539063v94.457031c0 3.726562 3.109376 6.539062 7.230469 6.539062h26.078125c19.6875 0 30.53125-11.238281 30.53125-31.644531v-2.496094c0-11.429687-3.585937-19.230468-11.207031-24.132812zm-37.476563-34.65625h14.542969c11.765625 0 16.351563 3.648437 16.351563 13.015625 0 10.945312-4.132813 14.824219-15.796875 14.824219h-15.097657zm33.390626 60.871094c0 11.910156-5.195313 17.457031-16.347657 17.457031h-17.042969v-36.441407h17.042969c11.457031 0 16.347657 4.972657 16.347657 16.625zm0 0"/>
    <path d="m153.097656 302.957031c3.308594 0 5.816406-1.761719 6.566406-4.605469l5.707032-19.113281h33.847656l5.753906 19.261719c.917969 2.75 3.363282 4.457031 6.378906 4.457031 4.078126 0 8.621094-2.914062 8.621094-7.09375 0-.429687-.074218-.792969-.140625-1.070312v-.222657l-28.984375-94.617187-.023437-.070313c-1.070313-3.214843-4.390625-5.292968-8.460938-5.292968-4.113281 0-7.308593 2.050781-8.34375 5.359375l-28.941406 94.023437c-.320313.816406-.320313 1.589844-.320313 2.03125 0 4.160156 4.3125 6.953125 8.339844 6.953125zm29.253906-79.957031 12.667969 42.191406h-25.441406zm0 0"/>
    <path d="m291.78125 201.824219v64.007812l-31.65625-62.371093c-1.25-2.40625-4.179688-8.035157-9.9375-8.035157-4.570312 0-7.644531 2.628907-7.644531 6.539063v94.316406c0 3.867188 3.214843 6.675781 7.644531 6.675781 4.359375 0 7.648438-2.871093 7.648438-6.675781v-64.011719l32.746093 63.71875c2.246094 4.496094 5.386719 6.96875 8.847657 6.96875 4.359374 0 7.648437-2.871093 7.648437-6.675781v-94.457031c0-3.765625-3.144531-6.398438-7.648437-6.398438-4.574219 0-7.648438 2.570313-7.648438 6.398438zm0 0"/>
    <path d="m368.085938 210.027344c10.066406 0 15.507812 4.574218 16.636718 13.988281.261719 3.808594 3.25 6.261719 7.636719 6.261719 4.859375 0 7.644531-2.839844 7.644531-7.789063 0-15.933593-13.183594-27.0625-32.058594-27.0625-20.199218 0-31.78125 11.886719-31.78125 32.613281v42.996094c0 20.816406 11.632813 32.753906 31.917969 32.753906 20.289063 0 31.921875-11.9375 31.921875-32.753906v-20.804687c0-3.867188-2.691406-6.675781-6.398437-6.675781h-24.410157c-3.589843 0-6.398437 3.054687-6.398437 6.953124 0 4.046876 2.75 7.09375 6.398437 7.09375h15.515626v13.433594c0 12.214844-5.4375 18.152344-16.625 18.152344s-16.625-5.9375-16.625-18.152344v-42.996094c0-12.121093 5.4375-18.011718 16.625-18.011718zm0 0"/>
    <path d="m440.183594 302.238281c5.046875 0 9.308594-4.328125 9.308594-9.449219 0-5.289062-4.175782-9.589843-9.308594-9.589843-5.300782 0-9.453125 4.214843-9.453125 9.589843 0 5.210938 4.238281 9.449219 9.453125 9.449219zm0 0"/>
    <path d="m440.113281 274.097656c4.238281 0 7.675781-3.4375 7.675781-7.675781v-63.792969c0-4.238281-3.4375-7.675781-7.675781-7.675781s-7.675781 3.4375-7.675781 7.675781v63.792969c0 4.238281 3.4375 7.675781 7.675781 7.675781zm0 0"/>
</svg>