<svg viewBox="-82 0 511 512" fill="#365B9A" xmlns="http://www.w3.org/2000/svg">
    <path d="m343.03125 439.039062c-1.007812-4.054687-5.105469-6.523437-9.167969-5.527343-4.054687 1.011719-6.527343 5.113281-5.519531 9.167969 2.53125 10.238281 3.8125 20.839843 3.8125 31.5 0 12.445312-10.042969 22.691406-22.691406 22.691406h-21.445313v-51.863282c0-4.175781-3.386719-7.5625-7.566406-7.5625-4.175781 0-7.5625 3.386719-7.5625 7.5625v51.863282h-197.996094v-51.863282c0-4.175781-3.386719-7.5625-7.5625-7.5625s-7.566406 3.386719-7.566406 7.5625v51.863282h-21.445313c-12.496093 0-22.671874-10.074219-22.691406-22.5v-.191406c0-34.90625 13.59375-67.726563 38.273438-92.417969 18.621094-18.605469 42.046875-31.042969 67.757812-35.945313 14.664063-2.800781 25.304688-15.640625 25.304688-30.527344v-9.804687c21.445312 9.464844 32.375 9.484375 53.855468-.007813v9.820313c0 14.898437 10.601563 27.71875 25.214844 30.5 39.75 7.554687 74.300782 33.757813 92.445313 70.105469 1.867187 3.734375 6.40625 5.253906 10.148437 3.390625 3.730469-1.867188 5.253906-6.414063 3.386719-10.148438-20.230469-40.542969-58.796875-69.78125-103.15625-78.214843-7.484375-1.421876-12.910156-7.996094-12.910156-15.632813v-17.527344c33.484375-19.238281 67.523437-53.105469 68.875-91.597656 20.285156-5.265625 35.292969-23.730469 35.292969-45.628906 0-21.875-14.988282-40.320313-35.242188-45.617188 0-33.710937-10.917969-60.761719-32.535156-82.378906-20.101563-20.101563-47.847656-32.546875-78.445313-32.546875-57.308593 0-110.984375 44.484375-110.984375 114.917969-20.253906 5.292969-35.238281 23.738281-35.238281 45.617187 0 21.894532 15.007813 40.363282 35.289063 45.625.566406 16.339844 6.929687 32.6875 18.910156 48.65625 2.511718 3.335938 7.25 4.011719 10.589844 1.5 3.347656-2.511718 4.015624-7.25 1.511718-10.589844-17.796875-23.683593-15.933594-39.589843-15.933594-53.34375v-63.699218c0-19.382813-3.164062-54.195313 28.109376-85.445313 58.921874-58.925781 163.597656-20.195312 163.597656 70.277344 0 97.402344.0625 91.246094-.140625 94.046875-3.519531 48.855469-73.492188 89.996094-95.710938 89.996094-5.953125 0-15.765625-3.117188-26.929687-8.753906-10.945313-5.507813-22.804688-13.28125-33.3125-22.332032-3.167969-2.722656-7.949219-2.367187-10.671875.796875-2.722657 3.167969-2.371094 7.949219.796875 10.671875 8.703125 7.484375 18.425781 14.28125 28.058594 19.828125v17.519531c0 7.632813-5.476563 14.21875-13.011719 15.664063-28.703125 5.476563-54.84375 19.351563-75.621094 40.121094-27.535156 27.53125-42.703125 64.152343-42.703125 103.105469v.25c.03125 20.71875 16.996094 37.570312 37.820312 37.570312h271.144532c20.898437 0 37.820312-16.886719 37.820312-37.820312 0-11.882813-1.429687-23.703126-4.253906-35.140626zm-58.15625-308.207031c11.78125 4.730469 20.113281 16.269531 20.113281 29.710938 0 13.445312-8.332031 24.984375-20.113281 29.714843zm-221.964844 59.414063c-11.78125-4.730469-20.109375-16.269532-20.109375-29.710938 0-13.445312 8.328125-24.984375 20.109375-29.714844zm0 0"/>
    <path d="m204.753906 395.757812c-2.261718-3.910156-6.472656-6.339843-10.988281-6.339843h-39.746094c-4.515625 0-8.726562 2.429687-10.984375 6.34375l-19.871094 34.417969c-2.261718 3.914062-2.261718 8.773437 0 12.6875l19.871094 34.417968c2.257813 3.914063 6.46875 6.347656 10.988282 6.347656h39.742187c4.519531 0 8.726563-2.429687 10.988281-6.347656l19.875-34.417968c2.257813-3.910157 2.257813-8.773438-.003906-12.6875zm-12.398437 72.746094h-36.925781l-18.460938-31.976562 18.460938-31.980469h36.925781l18.464843 31.980469zm0 0"/>
    <path d="m233.054688 163.40625c0 6.765625-5.488282 12.25-12.253907 12.25-6.769531 0-12.253906-5.484375-12.253906-12.25 0-6.769531 5.484375-12.253906 12.253906-12.253906 6.765625 0 12.253907 5.484375 12.253907 12.253906zm0 0"/>
    <path d="m139.238281 163.40625c0 6.765625-5.484375 12.25-12.25 12.25-6.769531 0-12.253906-5.484375-12.253906-12.25 0-6.769531 5.484375-12.253906 12.253906-12.253906 6.765625 0 12.25 5.484375 12.25 12.253906zm0 0"/>
    <path d="m212.105469 128.742188h-97.71875c-18.757813 0-34.117188 15.285156-34.117188 34.121093 0 18.820313 15.304688 34.128907 34.117188 34.128907h39.3125c3.953125 0 7.632812-2.125 9.609375-5.546876l10.585937-18.328124 10.585938 18.332031c1.976562 3.421875 5.65625 5.542969 9.605469 5.542969h39.3125c9.085937 0 17.644531-3.558594 24.105468-10.019532 17.519532-17.515625 11.300782-47.4375-12.757812-56.144531-3.933594-1.421875-8.265625.609375-9.6875 4.539063-1.421875 3.929687.609375 8.265624 4.539062 9.6875 13.5625 4.90625 16.953125 21.476562 7.210938 31.21875-3.605469 3.605468-8.367188 5.589843-13.410156 5.589843h-36.984376l-12.914062-22.359375c-4.261719-7.378906-14.953125-7.386718-19.214844 0l-12.914062 22.359375h-36.984375c-10.472657 0-18.992188-8.523437-18.992188-19 0-10.460937 8.578125-18.992187 18.992188-18.992187h97.71875c4.175781 0 7.5625-3.386719 7.5625-7.5625 0-4.179688-3.386719-7.566406-7.5625-7.566406zm0 0"/>
</svg>