<svg viewBox="-86 0 512 512" fill="#365B9A" xmlns="http://www.w3.org/2000/svg">
    <path d="m326.5625 428.453125c-4.683594-15.835937-9.003906-35.371094-12.84375-58.058594-.695312-4.109375-4.589844-6.871093-8.699219-6.183593-4.113281.695312-6.878906 4.59375-6.1875 8.703124 1.699219 10.019532 3.488281 19.453126 5.367188 28.261719-24.914063-22.898437-58.285157-35.789062-92.296875-38.570312v-24.550781c33.378906-14.050782 58.191406-44.539063 64.25-81.28125 3.167968-.691407 6.21875-1.714844 9.109375-3.027344 1.203125 17.511718 3.960937 52.101562 8.992187 89.039062.519532 3.785156 3.753906 6.53125 7.472656 6.53125.339844 0 .683594-.023437 1.027344-.070312 4.132813-.566406 7.023438-4.371094 6.460938-8.5-6.183594-45.363282-8.890625-87.132813-9.496094-97.359375 7.734375-8.210938 12.488281-19.261719 12.488281-31.40625 0-12.664063-5.160156-24.140625-13.488281-32.445313 1.921875-1.367187 3.179688-3.609375 3.179688-6.144531v-101.613281c0-39.578125-32.199219-71.777344-71.777344-71.777344-25.761719 0-102.640625 0-127.429688 0-35.101562 0-63.667968 28.554688-63.667968 63.664062v109.726563c0 2.535156 1.257812 4.777344 3.179687 6.148437-17.292969 17.25-18.074219 44.949219-1.667969 63.121094-7.296875 123.632813-27.140625 187.492188-27.140625 187.492188-8.765625 15.464844-13.394531 32.464844-13.394531 50.082031 0 17.511719 16.71875 31.765625 37.273438 31.765625h266.378906c19.964844 0 37.273437-13.605469 37.273437-31.765625 0-30.542969-13.945312-50.359375-14.363281-51.78125zm-29.453125-216.46875c0 13.003906-8.113281 24.136719-19.527344 28.636719.007813-.445313.007813-.898438.007813-1.351563v-55.914062c11.414062 4.5 19.519531 15.644531 19.519531 28.628906zm-92.925781-83.808594c-16.871094-19.597656-26.164063-44.652343-26.164063-70.550781 0-32.335938 0-10.535156 0-42.527344h52.101563c31.242187 0 56.679687 25.425782 56.679687 56.679688v94.066406c-22.941406 0-43.855469-6.683594-61.652343-18.886719-3.441407-2.355469-8.144532-1.46875-10.5 1.964844-2.355469 3.441406-1.476563 8.144531 1.964843 10.5 11.96875 8.199219 25.128907 14.136719 38.976563 17.671875h-163.316406c37.125-9.824219 66.96875-37.765625 79.425781-73.769531 5.011719 12.570312 12.089843 24.320312 21.039062 34.707031 2.714844 3.160156 7.476563 3.511719 10.636719.792969 3.164062-2.714844 3.523438-7.488281.808594-10.648438zm54.960937 64.019531-22.328125 43.453126c-3.429687 6.648437-9.261718 10.617187-15.601562 10.617187-11.289063 0-15.289063-10.054687-20.863282-19.867187-12.652343-22.269532-44.839843-21.4375-56.488281 1.144531l-4.179687 8.105469c-7.039063 13.644531-23.042969 14.375-30.726563.851562l-25.171875-44.304688zm-205.019531-128.53125c0-26.773437 21.789062-48.566406 48.566406-48.566406h60.210938v50.640625c0 48.585938-35.476563 100.105469-108.777344 100.105469zm9.207031 119.683594c0 59.734375-.003906 56.5625.011719 57.273438-25.960938-10.234375-25.988281-47.035156-.011719-57.273438zm-8.339843 70.074219c3.085937 1.460937 6.355468 2.597656 9.769531 3.34375 0 1.007813 2.9375 21.210937 16.117187 41.277344 2.269532 3.457031 6.9375 4.464843 10.457032 2.164062 3.484374-2.292969 4.449218-6.972656 2.164062-10.457031-17.480469-26.585938-15.066406-48.816406-15.066406-76.414062l17.394531 30.621093c13.484375 23.726563 44.621094 23.136719 57.273437-1.386719l4.179688-8.105468c6.257812-12.132813 23.308594-12.285156 29.941406-.605469l5.738282 10.097656c13.484374 23.726563 44.621093 23.136719 57.273437-1.386719l12.257813-23.855468c0 20.886718.488281 27.394531-1.8125 38.765625-13.519532 67.113281-94.367188 97.382812-148.589844 52.945312-3.21875-2.648437-7.972656-2.175781-10.617188 1.046875-2.648437 3.21875-2.1875 7.980469 1.035156 10.617188 8.050782 6.613281 17 11.96875 26.511719 15.953125v24.5625c-9.710937.792969-19.265625 2.40625-28.554687 4.800781-23.699219 6.097656-46.417969 17.636719-64.59375 34.558594 11.914062-55.460938 17.304687-121.640625 19.121094-148.542969zm141.8125 89.707031v18.894532h-52.683594v-18.933594c8.566406 2.183594 17.414062 3.308594 26.339844 3.308594 9.089843 0 17.90625-1.136719 26.34375-3.269532zm123.09375 148.378906c-8.179688 6.671876-15.890626 5.394532-37.203126 5.394532v-50.832032c0-4.167968-3.382812-7.550781-7.550781-7.550781s-7.550781 3.382813-7.550781 7.550781v50.832032h-194.265625v-50.832032c0-4.167968-3.378906-7.550781-7.550781-7.550781-4.167969 0-7.546875 3.382813-7.546875 7.550781v50.832032h-20.957031c-12.230469 0-22.175782-7.480469-22.175782-16.667969 0-57.101563 57.53125-103.113281 129.023438-103.113281 53.65625 0 68.296875-1.378906 92.574218 4.902344 53.304688 13.738281 89.128907 53.207031 89.128907 98.210937 0 4.15625-2.101563 8.160156-5.925781 11.273437zm0 0"/>
    <path d="m228.578125 216.070312c0 6.648438-5.386719 12.035157-12.035156 12.035157-6.648438 0-12.035157-5.386719-12.035157-12.035157 0-6.648437 5.386719-12.039062 12.035157-12.039062 6.648437 0 12.035156 5.390625 12.035156 12.039062zm0 0"/>
    <path d="m136.417969 216.070312c0 6.648438-5.390625 12.035157-12.035157 12.035157-6.648437 0-12.039062-5.386719-12.039062-12.035157 0-6.648437 5.390625-12.039062 12.039062-12.039062 6.644532 0 12.035157 5.390625 12.035157 12.039062zm0 0"/>
    <path d="m162.074219 290.613281c3.695312 1.9375 7.867187 2.960938 12.058593 2.960938 25.25 0 33.570313-33.550781 18.453126-33.550781-4.167969 0-7.546876 3.378906-7.546876 7.550781 0 8.179687-8.734374 13.453125-15.957031 9.667969-3.691406-1.9375-8.257812-.511719-10.191406 3.179687s-.511719 8.253906 3.183594 10.191406zm0 0"/>
    <path d="m200.878906 396.90625c-2.238281-3.878906-6.414062-6.289062-10.894531-6.289062h-39.042969c-4.480468 0-8.65625 2.410156-10.898437 6.289062l-19.519531 33.8125c-2.242188 3.882812-2.242188 8.703125 0 12.582031l19.519531 33.816407c2.242187 3.878906 6.417969 6.289062 10.898437 6.289062h39.042969c4.480469 0 8.65625-2.410156 10.894531-6.292969l19.523438-33.8125c2.238281-3.878906 2.238281-8.699219 0-12.582031zm-12.347656 71.402344h-36.136719l-18.070312-31.296875 18.070312-31.296875h36.136719l18.070312 31.296875zm0 0"/>
</svg>