<svg viewBox="-176 1 511 511.99925" fill="#9A363E" xmlns="http://www.w3.org/2000/svg">
    <path d="m137.753906 313.585938h-.703125v-90.089844c0-4.167969-3.382812-7.546875-7.550781-7.546875s-7.546875 3.378906-7.546875 7.546875v90.089844h-83.648437v-178.789063c0-4.164063-3.378907-7.546875-7.546876-7.546875-4.167968 0-7.550781 3.382812-7.550781 7.546875v178.789063h-.703125c-12.128906 0-22.003906 9.875-22.003906 22.003906v24.992187c0 12.128907 9.875 22.003907 22.003906 22.003907h15.078125v78.078124h-.230469c-13.320312 0-24.160156 10.839844-24.160156 24.15625v3.019532c0 13.320312 10.839844 24.160156 24.160156 24.160156h85.554688c13.320312 0 24.160156-10.839844 24.160156-24.160156v-3.019532c0-13.316406-10.839844-24.15625-24.160156-24.15625h-.230469v-30.488281c0-4.167969-3.371093-7.550781-7.546875-7.550781-4.167968 0-7.550781 3.382812-7.550781 7.550781v30.488281h-54.898437v-78.078124h54.898437v17.390624c0 4.179688 3.382813 7.550782 7.550781 7.550782 4.175782 0 7.546875-3.371094 7.546875-7.550782v-17.390624h15.078125c12.128906 0 22.003906-9.875 22.003906-22.003907v-24.992187c0-12.128906-9.875-22.003906-22.003906-22.003906zm-14.847656 162.175781c4.996094 0 9.0625 4.066406 9.0625 9.058593v3.019532c0 4.546875-3.398438 9.0625-9.734375 9.0625-9.476563 0-75.566406 0-84.882813 0-4.992187 0-9.0625-4.066406-9.0625-9.0625v-3.019532c0-4.738281 3.730469-9.058593 9.292969-9.058593zm21.753906-115.179688c0 3.804688-3.101562 6.90625-6.90625 6.90625-13.457031 0-101.59375 0-115.25 0-3.804687 0-6.90625-3.101562-6.90625-6.90625v-24.992187c0-3.804688 3.101563-6.90625 6.90625-6.90625h.703125 114.546875c3.804688 0 6.90625 3.101562 6.90625 6.90625zm0 0"/>
    <path d="m23.207031 104.601562c0 4.167969 3.382813 7.550782 7.550781 7.550782 4.167969 0 7.546876-3.382813 7.546876-7.550782v-13.09375l41.824218-74.085937 41.824219 74.085937v101.792969c0 4.167969 3.378906 7.546875 7.546875 7.546875s7.550781-3.378906 7.550781-7.546875v-102.378906c0-2.214844-.574219-4.398437-1.660156-6.320313l-44.078125-78.078124c-4.914062-8.695313-17.453125-8.699219-22.367188 0-47.824218 84.714843-45.738281 79.675781-45.738281 84.398437zm0 0"/>
</svg>