<svg viewBox="-4 0 512 512.00043" fill="#9A363E" xmlns="http://www.w3.org/2000/svg">
    <path d="m261.570312 412.320312c25.355469-23.753906 42.644532-57.664062 42.472657-92.5625-.972657-95.875-134.128907-145.636718-212.589844-78.929687-33.292969 28.304687-47.191406 71.113281-29.183594 117.777344 1.5 3.882812 5.867188 5.820312 9.753907 4.320312 3.886718-1.5 5.820312-5.867187 4.320312-9.753906-32.394531-83.949219 55.625-143.453125 130.023438-124.558594 8.378906 2.144531 81.894531 22.898438 82.589843 91.292969.140625 30.320312-15.765625 60.851562-37.699219 81.40625-3.65625 3.425781-5.753906 8.289062-5.753906 13.429688l.15625 36.261718c0 1.820313-1.480468 3.300782-3.3125 3.300782l-30.136718-.105469v-41.496094c0-4.167969-3.375-7.542969-7.542969-7.542969s-7.542969 3.375-7.542969 7.542969v41.445313l-35.875-.125v-41.320313c0-4.167969-3.378906-7.542969-7.542969-7.542969-4.167969 0-7.542969 3.375-7.542969 7.542969v41.265625l-28.152343-.097656c-1.816407-.007813-3.289063-1.488282-3.289063-3.300782v-36.417968c0-13.125-9.300781-12.59375-25.136718-35.871094-2.34375-3.445312-7.039063-4.335938-10.480469-1.996094-3.445313 2.34375-4.339844 7.035156-1.996094 10.480469 6.21875 9.140625 13.460937 17.5625 21.53125 25.035156 1.398437 1.296875.992187-.445312.992187 38.769531 0 10.105469 8.222657 18.355469 18.328126 18.390626l124.398437.433593c10.136719 0 18.386719-8.25 18.386719-18.46875-.167969-39.089843-.5625-37.304687.824218-38.605469zm0 0"/>
    <path d="m171.367188 343.265625c8.648437-6.21875 4.929687-19.992187-5.832032-20.792969-29.097656-2.15625-54.628906-29.480468-64.257812-41.128906-6.496094-7.863281-19.453125-4.007812-20.320313 6.378906-6.984375 83.195313 34.195313 95.957032 90.410157 55.542969zm-75.945313-45.648437c13.1875 14.496093 34.328125 33.117187 59.570313 38.539062-44.289063 28.320312-61.992188 13.765625-59.570313-38.539062zm0 0"/>
    <path d="m277.417969 287.722656c-.871094-10.386718-13.824219-14.242187-20.324219-6.378906-9.625 11.648438-35.15625 38.972656-64.257812 41.128906-10.808594.804688-14.449219 14.597656-5.828126 20.796875 56.519532 40.628907 97.355469 27.246094 90.410157-55.546875zm-14.46875 9.894532c1.027343 22.167968-.703125 52.625-22.925781 52.625-11.929688 0-26.21875-7.421876-36.640626-14.085938 25.242188-5.421875 46.382813-24.039062 59.566407-38.539062zm0 0"/>
    <path d="m212.941406 60.382812h184.617188c4.167968 0 7.546875-3.375 7.546875-7.542968 0-4.167969-3.378907-7.542969-7.546875-7.542969h-184.617188c-22.773437 0-41.296875 18.527344-41.296875 41.296875v22.066406h-25.945312c-4.164063 0-7.542969 3.378906-7.542969 7.542969s3.378906 7.546875 7.542969 7.546875h125.195312c5.984375 0 10.863281 4.875 10.863281 10.859375v35.910156c0 5.988281-4.867187 10.875-10.863281 10.875-196.75 0-184.261719.246094-186.582031-.476562-4.457031-1.355469-7.695312-5.511719-7.695312-10.398438v-35.910156c0-5.984375 4.871093-10.859375 10.863281-10.859375h28.042969c4.164062 0 7.542968-3.382812 7.542968-7.546875s-3.378906-7.542969-7.542968-7.542969h-28.042969c-14.3125 0-25.949219 11.648438-25.949219 25.949219v35.910156c0 7.925781 3.570312 15.046875 9.191406 19.804688-34.148437 26.019531-58.910156 64.191406-67.460937 108.863281-21.246094 110.816406 64.015625 212.8125 176.113281 212.8125 138.519531 0 224.75-151.839844 153.621094-270.960938-2.144532-3.570312-6.769532-4.738281-10.351563-2.605468-3.578125 2.140625-4.746093 6.769531-2.605469 10.351562 65.253907 109.199219-13.988281 248.128906-140.664062 248.128906-103.03125 0-180.671875-93.738281-161.296875-194.890624 8.5-44.386719 34.480469-81.785157 69.957031-105.542969h182.476563c11.992187 8.035156 22.945312 17.734375 32.652343 28.949219 2.714844 3.148437 7.480469 3.488281 10.628907.761718 3.160156-2.726562 3.5-7.480468.777343-10.628906-8.167968-9.445312-17.160156-17.90625-26.847656-25.308594 5.582032-4.757812 9.121094-11.839844 9.121094-19.734375v-35.910156c0-14.300781-11.644531-25.949219-25.949219-25.949219h-84.164062v-22.066406c0-14.449219 11.757812-26.210938 26.210937-26.210938zm0 0"/>
    <path d="m410.136719 37.753906c3.824219 0 2.925781-.066406 30.640625-24.558594 3.121094-2.757812 3.414062-7.523437.65625-10.648437-2.761719-3.121094-7.527344-3.414063-10.648438-.65625l-25.648437 22.667969c-5.21875 4.613281-1.894531 13.195312 5 13.195312zm0 0"/>
    <path d="m440.777344 94.464844-25.648438-22.667969c-3.125-2.757813-7.890625-2.464844-10.648437.65625-2.757813 3.121094-2.464844 7.890625.65625 10.648437l25.648437 22.667969c3.121094 2.757813 7.886719 2.464844 10.648438-.65625 2.757812-3.121093 2.464844-7.890625-.65625-10.648437zm0 0"/>
    <path d="m496.195312 45.292969h-46.441406c-4.167968 0-7.546875 3.375-7.546875 7.542969 0 4.167968 3.378907 7.542968 7.546875 7.542968h46.441406c4.164063 0 7.542969-3.375 7.542969-7.542968 0-4.167969-3.375-7.542969-7.542969-7.542969zm0 0"/>
</svg>