<svg viewBox="-41 0 512 512" fill="#9A363E" xmlns="http://www.w3.org/2000/svg">
    <path d="m181.699219 162.621094c2.136719-2.132813 4.128906-4.367188 6.003906-6.679688l48.886719 48.894532c4.902344 4.882812 12.8125 4.917968 17.753906 0 20.105469-20.117188 19.875-20 22.972656-22.609376 3.214844-2.691406 3.640625-7.476562.949219-10.683593-2.691406-3.214844-7.476563-3.640625-10.691406-.949219-3.78125 3.1875-4.023438 3.566406-22.105469 21.65625l-49.167969-49.171875c17.128907-31.578125 13.0625-73.050781-14.601562-100.714844-9.382813-9.382812-5.972657-5.957031-17.132813-17.105469-9.003906-9-21.863281-13.039062-34.394531-10.78125l-20.375 3.671876c-11.140625-11.144532-15.941406-18.148438-27.835937-18.148438-9.214844 0-14.183594 4.503906-18.828126 9.144531-5.289062 5.300781-7.496093 12.503907-6.625 19.414063-11.234374 2.117187-24.34375 15.125-20.585937 30.710937-6.6875 1.789063-10.019531 5.640625-12.714844 8.34375-6.859375 6.859375-8.46875 17-5.199219 25.027344-5.65625 1.925781-8.472656 5.15625-11.1875 7.871094-8.527343 8.527343-9.054687 22.0625-1.597656 31.214843 1.117188 1.371094-3.015625-2.84375 55.878906 56.050782 20.09375 20.09375 49.503907 24.539062 73.570313 14.628906l52.179687 52.167969c15.953126 15.953125 35.933594 21.847656 39.582032 21.847656 8.847656 0 10.480468-12.707031 1.910156-14.929687-11.601562-3.015626-22.234375-9.125-30.761719-17.652344l-49.140625-49.140625c5.910156-4.261719 5.726563-4.621094 33.257813-32.078125zm-105.496094-145.082032c1.527344-1.527343 3.570313-2.367187 5.757813-2.367187 4.304687 0 5.835937 2.4375 11.449218 8.054687-5.996094 4.683594-8.9375 12.695313-5.097656 22.617188-15.765625-15.765625-16.8125-15.859375-16.8125-20.199219 0-3.945312 2.277344-5.675781 4.703125-8.105469zm-21.039063 28.144532c3.148438-3.152344 8.359376-3.160156 11.519532 0 16.03125 16.03125 17.519531 17.519531 33.445312 33.441406 3.175782 3.175781 3.175782 8.347656 0 11.523438-2.359375 2.355468-4.121094 4.703124-8.105468 4.703124-2.183594 0-4.238282-.839843-5.765626-2.367187-36.359374-36.375-34.582031-34.078125-35.425781-36.699219-1.75-5.46875 2.316407-8.585937 4.332031-10.601562zm-18.886718 30.316406c3.148437-3.152344 8.355468-3.167969 11.519531 0 30.09375 30.089844 30.097656 28.925781 30.097656 33.484375 0 3.941406-2.277343 5.671875-4.707031 8.101563-3.179688 3.179687-8.402344 3.136718-11.519531 0-30.269531-30.265626-30.09375-29.0625-30.09375-33.484376 0-3.9375 2.273437-5.671874 4.703125-8.101562zm5.066406 67.167969c-4.472656 0-4.46875-1.082031-23.800781-20.402344-3.136719-3.132813-3.183594-8.339844 0-11.523437 2.40625-2.398438 4.140625-4.703126 8.101562-4.703126 4.511719 0 4.546875 1.148438 23.800781 20.402344 3.179688 3.179688 3.179688 8.347656 0 11.523438-2.351562 2.355468-4.109374 4.703125-8.101562 4.703125zm104.488281 33.878906c-20.355469 20.351563-53.621093 20.367187-74.007812 0l-20.789063-20.789063c4.320313-1.976562 6.402344-4.328124 9.144532-7.058593 3.824218-3.824219 6.152343-8.761719 6.6875-14.082031 12.753906.707031 25.636718-11.757813 26.167968-24.621094 9.777344-.40625 14.769532-6.074219 17.824219-9.117188 3.046875-3.054687 5.070313-6.734375 6.058594-10.640625-1.464844 10.785157-.28125 23.246094 6.585937 36.367188 1.933594 3.710937 6.527344 5.148437 10.238282 3.207031 3.710937-1.941406 5.148437-6.527344 3.207031-10.238281-11.332031-21.675781-2.296875-44.175781 7.535156-55.34375 5.710937-6.503907-1.84375-19.871094-13.402344-17.882813-12.578125 2.152344-20.355469 5.160156-26.675781-3.015625-2.355469-3.085937-4.269531-8.566406-.433594-9.214843.082032-.015626 28.804688-5.183594 28.890625-5.199219 7.644531-1.386719 15.484375 1.070312 20.980469 6.5625 20.480469 20.503906-3.40625-3.414063 17.125 17.117187 22.269531 22.253906 26.066406 55.667969 12.484375 81.792969-6.1875 11.871094-11.433594 15.964844-37.621094 42.15625zm-40.847656-114.53125c8.234375 3.234375 14.609375 1.703125 19.035156.941406l1.570313 1.558594c-.582032.835937-1.082032 1.25-3.207032 3.378906-3.175781 3.171875-8.398437 3.140625-11.523437 0zm0 0"/>
    <path d="m404.886719 201.121094-25.535157-25.53125c-22.582031-22.566406-54.519531-29.203125-82.5625-20.757813-4.015624 1.214844-6.292968 5.441407-5.089843 9.449219 1.214843 4.015625 5.441406 6.289062 9.457031 5.085938 22.878906-6.894532 48.984375-1.523438 67.464844 16.957031l25.53125 25.53125c26.410156 26.386719 26.535156 69.242187 0 95.777343l-77.902344 77.898438c-4.890625 4.894531-4.910156 12.847656.011719 17.746094 39.1875 39.1875 37.128906 38.285156 41.421875 38.285156 6.675781 0 10.167968-8.152344 5.363281-12.957031l-34.203125-34.203125 76.042969-76.039063c32.386719-32.386719 32.402343-84.835937 0-117.242187zm0 0"/>
    <path d="m373.699219 450.445312c-3.957031 1.375-6.050781 5.695313-4.683594 9.652344 9.839844 28.207032-24.960937 49.003906-45.320313 28.644532l-46.449218-46.449219c-26.457032-26.457031-26.492188-69.308594 0-95.777344l65.132812-65.136719c19.34375-19.34375 5.375-52.234375-21.648437-52.234375-14.363281 0-21.238281 8.5625-27.371094 14.695313-10.371094 10.371094-23.488281 16.976562-37.933594 19.109375-4.148437.617187-7.011719 4.472656-6.40625 8.617187.617188 4.140625 4.472657 7 8.621094 6.394532 17.703125-2.609376 33.753906-10.703126 46.441406-23.386719 5.589844-5.589844 8.960938-10.257813 16.648438-10.257813 13.839843 0 20.53125 16.714844 10.917969 26.332032l-65.136719 65.132812c-15.660157 15.660156-24.277344 36.480469-24.277344 58.621094 0 22.144531 8.617187 42.964844 24.277344 58.613281l46.453125 46.460937c8.082031 8.074219 18.8125 12.523438 30.234375 12.523438 29.292969 0 49.976562-28.6875 40.148437-56.882812-1.375-3.953126-5.695312-6.046876-9.648437-4.671876zm0 0"/>
</svg>