<svg viewBox="0 -83 512 512" fill="#9A363E" xmlns="http://www.w3.org/2000/svg">
    <path d="m492.890625 33.304688h-62.113281v-4.039063c0-16.136719-13.125-29.265625-29.265625-29.265625-16.136719 0-29.265625 13.128906-29.265625 29.265625v4.039063h-287.101563v-18.671876c0-8.066406-6.566406-14.632812-14.632812-14.632812h-24.730469c-8.066406 0-14.632812 6.566406-14.632812 14.632812v18.671876h-12.039063c-10.539063 0-19.109375 8.570312-19.109375 19.105468v12.664063c0 4.179687 3.390625 7.570312 7.570312 7.570312 4.179688 0 7.566407-3.390625 7.566407-7.570312v-12.664063c0-2.1875 1.78125-3.96875 3.972656-3.96875h473.78125c2.191406 0 3.972656 1.78125 3.972656 3.96875v79.023438c0 2.628906-2.140625 4.765625-4.769531 4.765625-29.800781 0-54.046875 24.191406-54.046875 53.925781 0 9.488281-.664063 4.230469 27.953125 114.625 3.597656 13.878906-6.941406 27.046875-20.921875 27.046875h-41.117187c-8.734376 0-16.558594-5.199219-19.929688-13.246094-1.617188-3.855469-6.050781-5.675781-9.90625-4.058593-3.855469 1.617187-5.671875 6.050781-4.058594 9.90625 5.738282 13.6875 19.042969 22.535156 33.894532 22.535156h41.117187c23.808594 0 41.667969-22.472656 35.574219-45.984375-13.007813-50.183594-21.671875-83.488281-26.203125-100.976563-6.429688-24.808594 12.351562-48.632812 37.644531-48.632812 10.976562 0 19.90625-8.929688 19.90625-19.90625v-79.023438c0-10.535156-8.574219-19.105468-19.109375-19.105468zm-422.882813 0h-23.722656v-18.167969h23.722656zm345.636719 0h-28.257812v-4.039063c0-7.789063 6.335937-14.128906 14.128906-14.128906 7.789063 0 14.128906 6.339843 14.128906 14.128906zm0 0"/>
    <path d="m376.492188 290.359375-29.585938-114.121094c-6.0625-23.398437-27.226562-40.039062-51.738281-40.039062h-264.785157c-8.40625 0-15.246093-6.839844-15.246093-15.246094v-25.605469c0-4.179687-3.386719-7.566406-7.566407-7.566406-4.179687 0-7.570312 3.386719-7.570312 7.566406v25.605469c0 16.753906 13.628906 30.382813 30.382812 30.382813h183.199219l10.179688 37.277343c7.714843 28.242188 33.550781 47.964844 62.824219 47.964844h60.328124l14.925782 57.578125c1.050781 4.054688 5.191406 6.476562 9.226562 5.425781 4.046875-1.046875 6.476563-5.179687 5.425782-9.222656zm-89.90625-68.914063c-22.46875 0-42.300782-15.140624-48.21875-36.816406l-9.09375-33.289062h65.894531c8.59375 0 16.652343 2.863281 23.140625 7.785156-5.441406 12.089844-15.890625 24.503906-35.875 24.503906-4.179688 0-7.570313 3.386719-7.570313 7.566406 0 4.179688 3.390625 7.570313 7.570313 7.570313 20.285156 0 36.425781-9.550781 46.515625-27.179687 2.871093 5.371093 2.328125 4.679687 14.039062 49.859374zm0 0"/>
    <path d="m471.871094 113.792969v-44.160157c0-4.183593-3.390625-7.570312-7.570313-7.570312-4.179687 0-7.566406 3.386719-7.566406 7.570312v44.160157c0 4.179687 3.386719 7.566406 7.566406 7.566406 4.179688 0 7.570313-3.386719 7.570313-7.566406zm0 0"/>
    <path d="m437.121094 113.792969v-44.160157c0-4.183593-3.386719-7.570312-7.566406-7.570312-4.183594 0-7.570313 3.386719-7.570313 7.570312v44.160157c0 4.179687 3.386719 7.566406 7.570313 7.566406 4.179687 0 7.566406-3.386719 7.566406-7.566406zm0 0"/>
    <path d="m394.804688 121.359375c4.179687 0 7.566406-3.386719 7.566406-7.566406v-44.160157c0-4.183593-3.386719-7.570312-7.566406-7.570312-4.179688 0-7.570313 3.386719-7.570313 7.570312v44.160157c0 4.179687 3.390625 7.566406 7.570313 7.566406zm0 0"/>
    <path d="m367.621094 113.792969v-44.160157c0-4.183593-3.386719-7.570312-7.566406-7.570312-4.179688 0-7.570313 3.386719-7.570313 7.570312v44.160157c0 4.179687 3.390625 7.566406 7.570313 7.566406 4.179687 0 7.566406-3.386719 7.566406-7.566406zm0 0"/>
    <path d="m332.871094 113.792969v-44.160157c0-4.183593-3.386719-7.570312-7.566406-7.570312-4.179688 0-7.570313 3.386719-7.570313 7.570312v44.160157c0 4.179687 3.390625 7.566406 7.570313 7.566406 4.179687 0 7.566406-3.386719 7.566406-7.566406zm0 0"/>
    <path d="m298.121094 113.792969v-44.160157c0-4.183593-3.386719-7.570312-7.566406-7.570312-4.179688 0-7.570313 3.386719-7.570313 7.570312v44.160157c0 4.179687 3.390625 7.566406 7.570313 7.566406 4.179687 0 7.566406-3.386719 7.566406-7.566406zm0 0"/>
    <path d="m263.371094 113.792969v-44.160157c0-4.183593-3.386719-7.570312-7.566406-7.570312-4.179688 0-7.570313 3.386719-7.570313 7.570312v44.160157c0 4.179687 3.390625 7.566406 7.570313 7.566406 4.179687 0 7.566406-3.386719 7.566406-7.566406zm0 0"/>
    <path d="m228.625 113.792969v-44.160157c0-4.183593-3.390625-7.570312-7.570312-7.570312-4.179688 0-7.570313 3.386719-7.570313 7.570312v44.160157c0 4.179687 3.390625 7.566406 7.570313 7.566406 4.179687 0 7.570312-3.386719 7.570312-7.566406zm0 0"/>
</svg>