<svg viewBox="0 -11 511.99978 511" fill="#9A363E" xmlns="http://www.w3.org/2000/svg">
    <path d="m186.957031 409.6875c-8.121093-1.257812-16.46875-1.566406-24.78125-.863281 5.082031-41.394531-15.023437-81.933594-51.550781-102.886719 20.15625-34.121094 21.015625-75.78125 3.746094-110.167969 19.625-12.402343 34.652344-31.070312 42.480468-52.886719 1.441407-4.015624-.636718-8.429687-4.648437-9.871093-4.015625-1.441407-8.429687.640625-9.871094 4.652343-6.988281 19.441407-20.664062 35.9375-38.53125 46.476563-5.445312 3.210937-7.636719 10.222656-4.507812 16.105469 16.664062 30.964844 16.03125 69.5625-3.621094 100.558594-3.6875 5.761718-1.757813 13.691406 4.515625 17.011718 33.75 17.820313 52.359375 54.964844 46.128906 92.921875-1.351562 7.742188 5.320313 14.878907 13.398438 13.871094 8.304687-1.058594 16.742187-.925781 24.875.328125.398437.0625.800781.09375 1.191406.09375 3.738281 0 7.03125-2.726562 7.617188-6.535156.660156-4.207032-2.234376-8.148438-6.441407-8.808594zm0 0"/>
    <path d="m133.410156 69.867188c1.242188 2.949218 4.105469 4.722656 7.117188 4.722656 5.5 0 9.253906-5.625 7.109375-10.714844l-24.699219-58.648438c-1.652344-3.929687-6.175781-5.773437-10.109375-4.117187-3.925781 1.652344-5.769531 6.179687-4.117187 10.109375zm0 0"/>
    <path d="m5.398438 174.953125c81.246093 25.625 75.734374 24.054687 77.453124 24.054687 8.761719 0 10.710938-12.433593 2.316407-15.082031l-75.125-23.695312c-4.070313-1.28125-8.402344.976562-9.683594 5.039062-1.28125 4.066407.972656 8.402344 5.039063 9.683594zm0 0"/>
    <path d="m74.25 308.085938-71.011719 50.640624c-6.109375 4.355469-2.984375 14.003907 4.488281 14.003907 3.5 0-1.4375 2.78125 75.484376-52.078125 3.472656-2.472656 4.277343-7.292969 1.804687-10.765625-2.472656-3.464844-7.292969-4.277344-10.765625-1.800781zm0 0"/>
    <path d="m148.722656 429.65625c-4.113281-1.144531-8.363281 1.261719-9.503906 5.367188l-12.351562 44.386718c-1.363282 4.90625 2.324218 9.789063 7.441406 9.789063 3.378906 0 6.480468-2.234375 7.433594-5.652344l12.347656-44.386719c1.144531-4.105468-1.257813-8.359375-5.367188-9.503906zm0 0"/>
    <path d="m74.414062 115.675781c49.652344 32.359375 46.855469 31.097657 50.003907 31.097657 7.644531 0 10.644531-10 4.21875-14.1875l-45.796875-29.84375c-3.570313-2.328126-8.351563-1.320313-10.679688 2.25-2.328125 3.574218-1.320312 8.355468 2.253906 10.683593zm0 0"/>
    <path d="m45.285156 244.261719c-4.265625 0-7.71875 3.457031-7.71875 7.71875 0 4.265625 3.453125 7.71875 7.71875 7.71875h40.289063c4.261719 0 7.71875-3.453125 7.71875-7.71875 0-4.261719-3.457031-7.71875-7.71875-7.71875zm0 0"/>
    <path d="m120.386719 352.785156c-3.4375-2.515625-8.269531-1.773437-10.789063 1.664063l-19.597656 26.757812c-2.519531 3.441407-1.773438 8.269531 1.664062 10.789063 3.4375 2.515625 8.265626 1.773437 10.789063-1.667969l19.597656-26.753906c2.519531-3.441407 1.773438-8.269531-1.664062-10.789063zm0 0"/>
    <path d="m504.28125 217.050781c4.261719 0 7.71875-3.445312 7.71875-7.71875v-1.953125c0-14.636718-11.90625-26.550781-26.550781-26.550781h-91.523438c-16.433593-20.335937-40.929687-33.910156-68.582031-35.824219-7.441406-16.042968-9.9375-34.097656-6.996094-51.777344 1.269532-8.019531-5.5-14.871093-13.410156-13.875-22.910156 2.929688-46.253906-3.019531-65.269531-17.699218-4.273438-3.304688-10.335938-3.355469-14.675781 0-19.074219 14.714844-42.398438 20.617187-65.277344 17.699218-8-.957031-14.679688 5.847657-13.398438 13.925782.941406 5.683594 1.316406 11.59375 1.171875 16.601562-.101562 4.257813 3.273438 7.789063 7.53125 7.890625 4.292969.113281 7.804688-3.269531 7.90625-7.53125.0625-4.972656-.050781-9.398437-.75-15.097656 24.507813 2.078125 49.339844-4.425781 70.15625-19.6875 20.644531 15.140625 45.441407 21.789063 70.144531 19.6875-2.003906 16.332031-.136718 33.453125 6.019532 49.636719-6.195313 0-.378906.007812-17.773438.007812-14.324218 0-27.753906 7.019532-35.925781 18.78125l-13.894531 19.996094h-17.082032c-27.015624 0-38.015624 34.953125-15.871093 50.449219-10.628907 13.234375-6.964844 33.109375 8.191406 41.539062-10.136719 14.488281-4.105469 34.761719 12.1875 41.429688-10.078125 17.066406.710937 42.21875 22.9375 42.21875 26.214844 0 44.480469.007812 57.3125.007812-6.066406 15.835938-8.164063 32.8125-6.101563 49.617188-24.632812-2.097657-49.441406 4.503906-70.144531 19.6875-4.375-3.191407-9.007812-6.0625-13.800781-8.53125-3.789062-1.957031-8.441406-.464844-10.394531 3.320312-1.957031 3.789063-.464844 8.441407 3.324219 10.394531 4.742187 2.449219 9.292968 5.34375 13.53125 8.617188 4.34375 3.359375 10.40625 3.300781 14.675781 0 31.121093-24.023438 63.261719-17.609375 66.8125-17.609375 7.445312 0 13.121093-6.765625 11.855469-14.019531-2.945313-17.742188-.371094-35.574219 7-51.484375 9.480468-.007813 34.886718 2.214843 58.710937-16.53125 1.882813-.75 14.316406-12.554688 18.195313-19.53125h83.207031c14.644531 0 26.550781-11.917969 26.550781-26.550781v-56.378907c0-4.257812-3.457031-7.71875-7.71875-7.71875s-7.71875 3.460938-7.71875 7.71875v56.378907c0 6.121093-4.992188 11.113281-11.113281 11.113281h-75.273438c6.546875-17.082031 5.257813-26.429688 5.257813-66.089844 0-16.375-4.082032-31.8125-11.289063-45.34375h81.304688c6.121093 0 11.113281 4.988281 11.113281 11.113281v1.953125c0 4.273438 3.457031 7.71875 7.71875 7.71875zm-292.75-5.75c0-6.785156 5.515625-12.300781 12.289062-12.300781h8.519532c-2.035156 9.179688 3.664062 21.027344 19.339844 24.585938h-27.859376c-6.773437 0-12.289062-5.515626-12.289062-12.285157zm67.222656 132.460938c-.195312 0-27.671875.007812-27.867187-.011719-14.777344-.761719-14.378907-24.574219.585937-24.574219h27.28125c15.273438 0 15.261719 24.585938 0 24.585938zm1.460938-40.117188c-23.320313 0-17.886719 0-41.308594 0-6.78125 0-12.296875-5.507812-12.296875-12.289062 0-6.257813 4.660156-12.285157 13.265625-12.285157h40.339844c6.785156 0 12.289062 5.503907 12.289062 12.285157s-5.503906 12.289062-12.289062 12.289062zm0-40.035156c-55.726563 0-52.445313.402344-55.777344-1.140625-11.886719-5.496094-7.976562-23.445312 5.164062-23.445312h50.613282c6.785156 0 12.289062 5.515624 12.289062 12.300781 0 6.769531-5.503906 12.285156-12.289062 12.285156zm0-40.023437h-14.003906c13.089843-2.941407 18.480468-11.660157 22.085937-16.753907h3.363281c3.148438 8.027344-2.808594 16.753907-11.445312 16.753907zm95.308594 106.15625c-9.976563 8.269531-24.457032 14.019531-41.082032 14.019531-14.90625 0-16.890625 0-31.386718 0 4.09375-8.625 4.011718-22.199219-4.683594-31.484375 12.359375-10.679688 12.8125-29.679688.996094-40.9375 11.425781-10.910156 11.433593-29.113282.011718-40.035156.824219-.769532 1.59375-1.605469 2.316406-2.488282 9.109376 15.054688 22.214844 25.042969 38.789063 30.285156 4.074219 1.277344 8.394531-.996093 9.671875-5.0625 1.277344-4.0625-.988281-8.398437-5.050781-9.671874-9.429688-2.992188-17.53125-7.988282-24.0625-15.304688-13.925781-15.507812-15.085938-34.382812-15.652344-37.667969-.96875-5.320312-7.617187-8.632812-13.328125-8.109375-7.996094.761719-10.105469 5.753906-19.007812 18.371094-8.246094 11.835938-25.585938 7.101562-25.585938.8125 0-1.808594-.894531 0 20.007812-30.089844 5.289063-7.617187 13.984376-12.15625 23.246094-12.15625 30.332032 0 34.402344-.480468 44.964844 1.792969 36.710938 7.871094 64.3125 40.578125 64.3125 79.59375 0 37.625 4.804688 65.007813-24.476562 88.132813zm0 0"/>
</svg>